<svg xmlns="http://www.w3.org/2000/svg" version="1.1" xmlns:xlink="http://www.w3.org/1999/xlink" width="512" height="512" x="0" y="0" viewBox="0 0 24 24" style="enable-background:new 0 0 512 512" xml:space="preserve" class=""><g><path d="M24 13c0 2.912-1.06 5.721-2.984 7.909-1.171 1.332-3.222 1.467-4.567.3l-.594-.512a.502.502 0 0 1-.052-.706.503.503 0 0 1 .706-.052l.594.513c.933.81 2.354.719 3.162-.203a10.985 10.985 0 0 0-1.192-15.674c-2.493-2.096-5.794-2.971-9.06-2.401-4.728.825-8.313 4.597-8.921 9.386-.407 3.206.533 6.294 2.648 8.695.793.899 2.239.99 3.158.198l.593-.513a.5.5 0 0 1 .655.756l-.593.513a3.258 3.258 0 0 1-2.137.795 3.22 3.22 0 0 1-2.426-1.089C.682 18.296-.344 14.929.1 11.435.763 6.207 4.678 2.09 9.842 1.189c3.558-.627 7.155.333 9.875 2.62A11.98 11.98 0 0 1 24 12.999Zm-10.278-1.015A2.002 2.002 0 0 1 12 15c-1.103 0-2-.897-2-2a2.002 2.002 0 0 1 3.015-1.722l3.631-3.631a.5.5 0 0 1 .707.707l-3.631 3.631ZM13 13a1.001 1.001 0 0 0-2 0 1.001 1.001 0 0 0 2 0Z" fill="#1d4ed8" opacity="1" data-original="#000000" class=""></path></g></svg>