<svg xmlns="http://www.w3.org/2000/svg" version="1.1" xmlns:xlink="http://www.w3.org/1999/xlink" width="512" height="512" x="0" y="0" viewBox="0 0 64 64" style="enable-background:new 0 0 512 512" xml:space="preserve" class=""><g><path d="M58 2H6a4 4 0 0 0-4 4v44a4 4 0 0 0 4 4h19.586L22 57.586V62h2v-3.586L28.414 54H31v8h2v-8h2.586L40 58.414V62h2v-4.414L38.414 54H58a4 4 0 0 0 4-4V6a4 4 0 0 0-4-4zM12.273 12.326l1.311 1.51a7.56 7.56 0 0 0-2.021 2.807l-1.849-.764a9.575 9.575 0 0 1 2.559-3.553zm2.206 13.507-1.075 1.686a9.59 9.59 0 0 1-3.055-3.137l1.715-1.029a7.584 7.584 0 0 0 2.415 2.48zm-5.362-7.83 1.976.314a7.561 7.561 0 0 0 .256 3.45l-1.907.604a9.596 9.596 0 0 1-.325-4.368zm5.59 29.29-1.414 1.414L11 46.414l-2.293 2.293-1.414-1.414L9.586 45l-2.293-2.293 1.414-1.414L11 43.586l2.293-2.293 1.414 1.414L12.414 45zm-.613-36.211A9.405 9.405 0 0 1 18.339 10l.034 2a7.41 7.41 0 0 0-3.35.852zM18.982 46h-3.955v-2h3.955zm.638-17H18.5a9.485 9.485 0 0 1-3.11-.521l.654-1.89c.788.273 1.614.411 2.456.411h1.12zm.713-19h3.956v2h-3.955zm4.583 36H20.96v-2h3.956zm.637-17h-3.955v-2h3.955zm.714-19h3.955v2h-3.955zm4.582 36h-3.955v-2h3.955zm.638-17H27.53v-2h3.956zm.713-19h3.956v2H32.2zm4.583 36h-3.956v-2h3.956zm.637-17h-3.956v-2h3.956zm.714-17v-2h3.955v2zm4.582 34H38.76v-2h3.956zm.638-17h-3.956v-2h3.956zm.713-19h3.955v2h-3.955zM45.5 46h-.806v-2h.806c.937 0 1.85-.17 2.715-.506l.724 1.864A9.459 9.459 0 0 1 45.5 46zm3.231-16.27A7.429 7.429 0 0 0 45.5 29h-.169v-2h.169c1.434 0 2.811.312 4.094.926zm2.156 14.596-1.136-1.646a7.569 7.569 0 0 0 2.323-2.566l1.752.966a9.593 9.593 0 0 1-2.939 3.246zm-.683-13.668 1.255-1.556a9.565 9.565 0 0 1 2.687 3.458l-1.82.83a7.558 7.558 0 0 0-2.122-2.732zm4.454 8.377-1.928-.533a7.58 7.58 0 0 0 .13-3.457l1.962-.385a9.615 9.615 0 0 1-.164 4.375zm2.049-25.742-1.414 1.414L53 12.414l-2.293 2.293-1.414-1.414L51.586 11l-2.293-2.293 1.414-1.414L53 9.586l2.293-2.293 1.414 1.414L54.414 11z" fill="#ffffff" opacity="1" data-original="#000000" class=""></path></g></svg>