<svg xmlns="http://www.w3.org/2000/svg" version="1.1" xmlns:xlink="http://www.w3.org/1999/xlink" width="512" height="512" x="0" y="0" viewBox="0 0 25 25" style="enable-background:new 0 0 512 512" xml:space="preserve" class=""><g><path d="M12.5 5.6C6 5.6.9 11.6.7 11.9c-.3.4-.3.9 0 1.3.2.3 5.3 6.3 11.8 6.3s11.5-6 11.8-6.3c.3-.4.3-.9 0-1.3-.3-.3-5.3-6.3-11.8-6.3zm0 11.7c-2.6 0-4.8-2.2-4.8-4.8 0-2.7 2.2-4.8 4.8-4.8 2.7 0 4.8 2.1 4.8 4.8 0 2.6-2.1 4.8-4.8 4.8z" fill="#ffffff" opacity="1" data-original="#000000" class=""></path><path d="M12.5 10.2h-.1c.1.2.1.5.1.7 0 1.2-1 2.2-2.2 2.3.3 1 1.3 1.6 2.2 1.6 1.3 0 2.3-1 2.3-2.3s-1-2.3-2.3-2.3zM1.5 18.1c-.6 0-1 .4-1 1v4.4c0 .6.4 1 1 1h4.4c.6 0 1-.4 1-1s-.4-1-1-1H2.5v-3.4c0-.6-.4-1-1-1zM1.5 6.9c.6 0 1-.4 1-1V2.5h3.4c.6 0 1-.4 1-1s-.4-1-1-1H1.5c-.6 0-1 .4-1 1v4.4c0 .6.4 1 1 1zM23.5 6.9c.6 0 1-.4 1-1V1.5c0-.6-.4-1-1-1h-4.4c-.6 0-1 .4-1 1s.4 1 1 1h3.4v3.4c0 .6.4 1 1 1zM23.5 24.5c.6 0 1-.4 1-1v-4.4c0-.6-.4-1-1-1s-1 .4-1 1v3.4h-3.4c-.6 0-1 .4-1 1s.4 1 1 1z" fill="#ffffff" opacity="1" data-original="#000000" class=""></path></g></svg>