<svg xmlns="http://www.w3.org/2000/svg" version="1.1" xmlns:xlink="http://www.w3.org/1999/xlink" width="512" height="512" x="0" y="0" viewBox="0 0 24 24" style="enable-background:new 0 0 512 512" xml:space="preserve" class=""><g><path d="M19.5 0h-15A4.505 4.505 0 0 0 0 4.5v15C0 21.981 2.019 24 4.5 24h15c2.481 0 4.5-2.019 4.5-4.5v-15C24 2.019 21.981 0 19.5 0Zm-15 1h15c1.758 0 3.204 1.308 3.449 3H1.051C1.296 2.308 2.742 1 4.5 1Zm15 22h-15C2.57 23 1 21.43 1 19.5V5h22v14.5c0 1.93-1.57 3.5-3.5 3.5ZM4 8.5a.5.5 0 0 1 .5-.5h4a.5.5 0 0 1 0 1h-4a.5.5 0 0 1-.5-.5Zm10 5a.5.5 0 0 1-.5.5h-6a.5.5 0 0 1 0-1h6a.5.5 0 0 1 .5.5Zm0 5a.5.5 0 0 1-.5.5h-9a.5.5 0 0 1 0-1h9a.5.5 0 0 1 .5.5Zm5-1.929V10.5C19 9.122 17.879 8 16.5 8h-1.571c-.224-.86-1-1.5-1.929-1.5-1.103 0-2 .897-2 2s.897 2 2 2c.929 0 1.705-.64 1.929-1.5H16.5c.827 0 1.5.673 1.5 1.5v6.071c-.86.224-1.5 1-1.5 1.929 0 1.103.897 2 2 2s2-.897 2-2c0-.929-.64-1.705-1.5-1.929ZM13 9.5a1.001 1.001 0 0 1 0-2 1.001 1.001 0 0 1 0 2Zm5.5 10a1 1 0 1 1 0-2 1 1 0 0 1 0 2Z" fill="#1d4ed8" opacity="1" data-original="#000000" class=""></path></g></svg>