<svg xmlns="http://www.w3.org/2000/svg" version="1.1" xmlns:xlink="http://www.w3.org/1999/xlink" width="512" height="512" x="0" y="0" viewBox="0 0 32 32" style="enable-background:new 0 0 512 512" xml:space="preserve" class=""><g><g data-name="Layer 20"><path d="M24.945 20.11A11.001 11.001 0 1 1 12.89 8.055 1.009 1.009 0 0 1 14 9.056V18a1 1 0 0 0 1 1h8.944a1.009 1.009 0 0 1 1 1.11Z" fill="#ffffff" opacity="1" data-original="#000000" class=""></path><path d="M26.949 17H17a1 1 0 0 1-1-1V6.051a1.01 1.01 0 0 1 1.103-1A12.009 12.009 0 0 1 27.95 15.896 1.01 1.01 0 0 1 26.949 17Z" fill="#ffffff" opacity="1" data-original="#000000" class=""></path><path d="M26.949 17H17a1 1 0 0 1-1-1V6.051a1.01 1.01 0 0 1 1.103-1A12.009 12.009 0 0 1 27.95 15.896 1.01 1.01 0 0 1 26.949 17ZM8 4H4a1 1 0 0 1 0-2h4a1 1 0 0 1 0 2ZM11.001 13a.999.999 0 0 1-.896-.553L7.382 7H4a1 1 0 0 1 0-2h4a1 1 0 0 1 .895.553l3 6A1 1 0 0 1 11 13ZM29 27h-4a1 1 0 0 1 0-2h4a1 1 0 0 1 0 2ZM29 30h-4a1 1 0 0 1 0-2h4a1 1 0 0 1 0 2Z" fill="#ffffff" opacity="1" data-original="#000000" class=""></path><path d="M22 11a1.002 1.002 0 0 1-.919-1.394l3-7A.999.999 0 0 1 25 2h4a1 1 0 0 1 0 2h-3.34l-2.741 6.394A1 1 0 0 1 22 11Z" fill="#ffffff" opacity="1" data-original="#000000" class=""></path><path d="M29 7h-2a1 1 0 0 1 0-2h2a1 1 0 0 1 0 2Z" fill="#ffffff" opacity="1" data-original="#000000" class=""></path></g></g></svg>