<svg xmlns="http://www.w3.org/2000/svg" version="1.1" xmlns:xlink="http://www.w3.org/1999/xlink" width="512" height="512" x="0" y="0" viewBox="0 0 24 24" style="enable-background:new 0 0 512 512" xml:space="preserve" class=""><g><path d="M17.5 11c-3.584 0-6.5 2.916-6.5 6.5s2.916 6.5 6.5 6.5 6.5-2.916 6.5-6.5-2.916-6.5-6.5-6.5Zm0 12c-3.033 0-5.5-2.468-5.5-5.5s2.467-5.5 5.5-5.5 5.5 2.468 5.5 5.5-2.467 5.5-5.5 5.5Zm2.94-7.451.701.713-3.457 3.399c-.217.218-.51.339-.822.339s-.604-.121-.825-.342l-1.851-1.794.696-.719 1.856 1.8c.062.062.186.062.241.006l3.46-3.402ZM2.5 23c-.827 0-1.5-.673-1.5-1.5V9h18V8h-3V6.5C16 2.916 13.084 0 9.5 0S3 2.916 3 6.5V8H0v13.5C0 22.879 1.122 24 2.5 24h8.849a9.144 9.144 0 0 1-1.045-1H2.5ZM4 6.5C4 3.467 6.467 1 9.5 1S15 3.467 15 6.5V8H4V6.5ZM9 18v-4h1v4H9Z" fill="#1d4ed8" opacity="1" data-original="#000000" class=""></path></g></svg>