<svg xmlns="http://www.w3.org/2000/svg" version="1.1" xmlns:xlink="http://www.w3.org/1999/xlink" width="512" height="512" x="0" y="0" viewBox="0 0 511.98 511.98" style="enable-background:new 0 0 512 512" xml:space="preserve" class=""><g><path fill="#00358f" d="M483.24 77.21v164.4c0 40.69-18.65 87.92-52.5 132.99-39.45 52.51-97.56 98.86-168.05 134.04l-6.7 3.34-6.7-3.34c-70.49-35.18-128.6-81.53-168.05-134.04-33.85-45.07-52.5-92.3-52.5-132.99V77.21L139.3 0h233.38z" opacity="1" data-original="#00358f" class=""></path><path fill="#012453" d="M483.24 77.21v164.4c0 40.69-18.65 87.92-52.5 132.99-39.45 52.51-97.56 98.86-168.05 134.04l-6.7 3.34V0h116.69z" opacity="1" data-original="#012453" class=""></path><path fill="#00b3fe" d="M353.8 60H158.18l-69.44 48.49v133.12c0 45.75 45.01 135.15 167.25 202.78 122.24-67.63 167.25-157.03 167.25-202.78V108.49z" opacity="1" data-original="#00b3fe"></path><path fill="#0274f9" d="M423.24 108.49v133.12c0 45.75-45.01 135.15-167.25 202.78V60h97.81z" opacity="1" data-original="#0274f9"></path><path fill="#eff5fa" d="M358.52 45H153.46l-79.72 55.67v140.94c0 29.26 14.82 66.44 40.65 102 31.45 43.3 77.9 82.69 134.34 113.91l7.26 4.02 7.26-4.02c56.44-31.22 102.89-70.61 134.34-113.91 25.83-35.56 40.65-72.74 40.65-102V100.67zm49.72 196.61c0 39.91-40.71 121.4-152.25 185.56-111.54-64.16-152.25-145.65-152.25-185.56v-125.3L162.9 75h186.18l59.16 41.31z" opacity="1" data-original="#eff5fa" class=""></path><path fill="#c6e1ec" d="M438.24 100.67v140.94c0 29.26-14.82 66.44-40.65 102-31.45 43.3-77.9 82.69-134.34 113.91l-7.26 4.02v-34.37c111.54-64.16 152.25-145.65 152.25-185.56v-125.3L349.08 75h-93.09V45h102.53z" opacity="1" data-original="#c6e1ec" class=""></path><path fill="#eff5fa" d="m351.75 174.24-95.76 98.42-.2.21-24.35 25.02-71.21-66.6 20.49-21.91 49.72 46.51 25.35-26.04.2-.21 74.26-76.32z" opacity="1" data-original="#eff5fa" class=""></path><path fill="#c6e1ec" d="m351.75 174.24-95.76 98.42v-43.02l74.26-76.32z" opacity="1" data-original="#c6e1ec" class=""></path></g></svg>